<svg width="263" height="48" viewBox="0 0 263 48" fill="none" xmlns="http://www.w3.org/2000/svg">
<path fill-rule="evenodd" clip-rule="evenodd" d="M1.24481 0H44.7552C45.4406 0 46 0.571565 46 1.2719V45.7281C46 46.4284 45.4406 47 44.7552 47H1.24481C0.559375 47 0 46.4284 0 45.7281V1.2719C0 0.571565 0.559375 0 1.24481 0Z" fill="#A92414"/>
<path fill-rule="evenodd" clip-rule="evenodd" d="M23 0H44.7789C45.4511 0 46 0.571543 46 1.27149V45.7285C46 46.4285 45.4511 47 44.7789 47H23V0Z" fill="#7E1510"/>
<path fill-rule="evenodd" clip-rule="evenodd" d="M147.227 35C145.813 35 144.459 34.8016 143.167 34.4055C141.874 34.0086 140.818 33.4913 140 32.8537V30.4463C140.781 31.1426 141.795 31.7419 143.041 32.2445C144.38 32.7472 145.729 32.9984 147.088 32.9984C148.631 32.9984 149.896 32.6504 150.882 31.9543C151.604 31.4446 152.061 30.8111 152.254 30.0531H154.417C154.214 31.444 153.529 32.5703 152.361 33.4336C150.966 34.4779 149.254 35 147.227 35ZM152.361 29.1779V29.1697C152.473 28.0864 151.933 27.1681 150.743 26.4135C150.5 26.2206 150.11 26.0272 149.571 25.8336L148.342 25.3986C148.287 25.3801 148.175 25.3457 148.008 25.2968C147.84 25.2488 147.659 25.1911 147.464 25.1228C147.268 25.0553 147.069 24.9927 146.864 24.9349C145.711 24.5868 145.022 24.3738 144.799 24.2964C144.204 24.0834 143.627 23.8419 143.069 23.571C142.455 23.262 141.972 22.9236 141.618 22.5561C140.898 21.7736 140.495 20.8268 140.408 19.715H142.474C142.536 20.3493 142.957 20.9772 143.739 21.5988C143.888 21.7347 144.194 21.8892 144.66 22.0632L145.608 22.4397L146.808 22.788L147.98 23.136C149.003 23.4653 149.645 23.6775 149.906 23.7744C150.445 23.9679 151.012 24.2289 151.607 24.5574C152.222 24.8862 152.724 25.2537 153.114 25.6596C154.026 26.5297 154.481 27.6903 154.481 29.1403V29.1773H152.361V29.1779ZM140.405 18.8406C140.504 17.4963 141.094 16.376 142.176 15.4795C143.367 14.4937 145.022 14 147.143 14C149.487 14 151.514 14.5612 153.226 15.6826V17.8868C151.291 16.6301 149.282 16.0016 147.199 16.0016C145.692 16.0016 144.529 16.3106 143.711 16.9295C143.028 17.4454 142.63 18.0824 142.517 18.8406H140.405ZM165.419 34.652H163.355V17.1649H165.419V34.652ZM157.25 16.2919H156.63V14.3482H172.228V16.2899H157.25V16.2919ZM216.872 34.652H214.835V14.3482H216.872V34.652ZM217.714 15.5206L223.931 24.1809L230.116 15.5665V18.7737L224.573 26.4727H223.318L217.714 18.7562V15.5206ZM230.957 14.3482H233V34.652H230.963C230.963 27.9069 231.056 21.0843 230.957 14.3482H230.957ZM189.781 34.652H175.97V14.3482H189.363V16.2919H178.035C178.035 21.7713 178.035 27.2455 178.035 32.7089H189.781V34.652ZM178.862 22.7885H187.326V24.7323H178.862V22.7885ZM194.051 34.652H191.902L200.608 14.2327H202.533L211.267 34.652H209.091L206.663 29.054H197.272L198.063 27.1687H205.993L201.557 16.9295L194.051 34.652Z" fill="#5E605E"/>
<path fill-rule="evenodd" clip-rule="evenodd" d="M255.361 8C259.611 8.18889 263 11.6986 263 16C263 20.3012 259.611 23.8109 255.361 24V22.4739C258.77 22.287 261.478 19.4596 261.478 16C261.478 12.5403 258.77 9.71299 255.361 9.52584V8ZM254.534 23.9947C250.333 23.7523 247 20.2656 247 16C247 11.7341 250.333 8.24749 254.534 8.00521V9.53248C251.174 9.77223 248.522 12.5764 248.522 16C248.522 19.4233 251.174 22.2276 254.534 22.4673V23.9947Z" fill="#5E605E"/>
<path fill-rule="evenodd" clip-rule="evenodd" d="M254.938 12.595C255.434 12.595 255.807 12.6544 256.051 12.7727C256.297 12.8891 256.469 13.0404 256.568 13.2225C256.667 13.4046 256.722 13.6503 256.731 13.964C256.722 14.2779 256.667 14.5237 256.568 14.7058C256.469 14.8879 256.297 15.0392 256.051 15.1555C255.807 15.2739 255.434 15.3332 254.938 15.3332H253.926V12.595H254.938ZM257.029 20H259L257.187 16.5663C257.512 16.4081 257.767 16.1956 257.948 15.9255C258.397 15.2565 258.621 14.6027 258.616 13.964C258.62 13.3256 258.397 12.6718 257.948 12.0026C257.498 11.3356 256.597 11 255.247 11H252V20H253.926V16.9283H255.367L257.029 20Z" fill="#5E605E"/>
<path fill-rule="evenodd" clip-rule="evenodd" d="M32.793 17.3716C31.4447 15.2662 31.1203 14.8728 31.1889 14.9737C30.954 14.6478 29.1429 12.1101 28.1101 10.7538C25.8471 7.78145 23.8961 5.45684 23.511 5C23.3737 5 19.1829 10.3694 18.8906 10.7538C17.268 12.8849 15.66 15.1032 14.2077 17.3716C10.6046 23 9.30591 31.0659 14.2077 36.7822C15.9734 38.8423 18.9381 40.3837 21.5038 40.7952C21.7076 40.8315 23.5413 40.993 23.5413 41C24.2206 40.9877 24.8387 40.9101 25.497 40.7952C26.3643 40.6561 26.9947 40.48 27.2117 40.4006C27.5513 40.2752 27.8937 40.1366 28.2353 39.9849C29.0116 39.6547 29.7735 39.2412 30.5201 38.74L30.5259 38.736L30.5642 38.7109C31.4098 38.1461 32.1781 37.4995 32.7923 36.783C37.6941 31.0668 36.3954 23.0008 32.7923 17.3724L32.793 17.3716ZM14.4578 18.5892C17.3116 14.0282 20.1899 10.1467 23.5413 6.08608V27.0968C16.3883 27.9475 18.2265 37.1651 22.1575 40.1966C11.3432 37.4972 9.57168 27.1183 14.4578 18.5892ZM23.5003 27.9038C30.0512 29.2494 27.3595 37.3872 23.5413 40.9456C19.723 37.3872 16.9496 29.2494 23.5003 27.9038Z" fill="white"/>
<path fill-rule="evenodd" clip-rule="evenodd" d="M80.7925 34.652H67V14.3482H80.3746V16.2919H69.0619C69.0619 21.7713 69.0619 27.2455 69.0619 32.7089H80.7925V34.652ZM69.8877 22.7885H78.3409V24.7323H69.8877V22.7885ZM85.0562 34.652H82.9108L91.6044 14.2327H93.5272L102.249 34.652H100.076L97.6511 29.054H88.2732L89.0629 27.1687H96.9822L92.5521 16.9295L85.0562 34.652ZM111.612 35C110.2 35 108.848 34.8016 107.557 34.4055C106.266 34.0086 105.212 33.4913 104.395 32.8537V30.4463C105.174 31.1426 106.187 31.7419 107.432 32.2445C108.769 32.7472 110.116 32.9984 111.473 32.9984C113.014 32.9984 114.278 32.6504 115.262 31.9543C115.983 31.4446 116.44 30.8111 116.632 30.0531H118.792C118.589 31.444 117.906 32.5703 116.739 33.4336C115.346 34.4779 113.636 35 111.612 35ZM116.739 29.1779V29.1697C116.85 28.0864 116.311 27.1681 115.123 26.4135C114.881 26.2206 114.491 26.0272 113.952 25.8336L112.726 25.3986C112.67 25.3801 112.559 25.3457 112.392 25.2968C112.224 25.2488 112.044 25.1911 111.848 25.1228C111.653 25.0553 111.454 24.9927 111.249 24.9349C110.098 24.5868 109.41 24.3738 109.187 24.2964C108.593 24.0834 108.017 23.8419 107.46 23.571C106.847 23.262 106.364 22.9236 106.011 22.5561C105.292 21.7736 104.889 20.8268 104.803 19.715H106.865C106.927 20.3493 107.347 20.9772 108.129 21.5988C108.277 21.7347 108.583 21.8892 109.048 22.0632L109.995 22.4397L111.194 22.788L112.364 23.136C113.385 23.4653 114.027 23.6775 114.287 23.7744C114.825 23.9679 115.392 24.2289 115.986 24.5574C116.6 24.8862 117.101 25.2537 117.491 25.6596C118.401 26.5297 118.856 27.6903 118.856 29.1403V29.1773H116.739V29.1779ZM104.799 18.8406C104.898 17.4963 105.487 16.376 106.568 15.4795C107.757 14.4937 109.41 14 111.528 14C113.869 14 115.893 14.5612 117.603 15.6826V17.8868C115.671 16.6301 113.664 16.0016 111.584 16.0016C110.079 16.0016 108.918 16.3106 108.101 16.9295C107.419 17.4454 107.022 18.0824 106.909 18.8406H104.799ZM130.42 34.652H128.358V25.3414L120.779 14.3482H123.117C125.614 17.9118 128.113 21.4763 130.609 25.0393L130.42 25.3122V34.652ZM129.936 22.5937L135.659 14.3482H138L131.126 24.2915L129.936 22.5937Z" fill="#5E605E"/>
</svg>
